<svg width="1440" height="1024" viewBox="0 0 1440 1024" fill="none" xmlns="http://www.w3.org/2000/svg">
<mask id="mask0_102_3" style="mask-type:alpha" maskUnits="userSpaceOnUse" x="-175" y="-104" width="1657" height="1516">
<path d="M1211.69 231.382C1470.68 185.259 1494.75 369.915 1474.41 468.008V641.467C1468.03 777.16 1400.99 1027.59 1183.96 943.768C966.924 859.946 938.551 1114.39 951.494 1252.08L8.02136 1409L-97.3693 883.107L-172 368.745C-70.4753 314.769 121.48 191.376 77.1051 129.612C32.7301 67.8484 117.446 -50.1975 165.351 -101.5L929.307 -82.4496C915.523 41.3784 952.704 277.504 1211.69 231.382Z" stroke="#FF3A3A" stroke-width="4"/>
</mask>
<g mask="url(#mask0_102_3)">
<rect width="2840" height="2478.56" transform="matrix(-1 0 0 1 2155.17 -543.17)" fill="#D3B89D"/>
</g>
</svg>
